<svg width="305" height="58" viewBox="0 0 305 58" fill="none" xmlns="http://www.w3.org/2000/svg">
<path d="M100.771 36.1509C101.082 41.4727 105.547 44.8216 112.141 44.8216C119.203 44.8216 123.642 41.3689 123.642 35.8653C123.642 31.5559 121.098 29.1416 114.945 27.7138L111.674 26.935C107.806 26.0004 106.196 24.8062 106.196 22.7554C106.196 20.1853 108.715 18.42 112.349 18.42C116.009 18.42 118.476 20.1853 118.761 23.0669H123.174C123.019 17.9787 118.683 14.5 112.427 14.5C106.067 14.5 101.576 17.9787 101.576 23.0929C101.576 27.1946 104.094 29.7127 109.623 31.0107L113.465 31.9194C117.359 32.8539 119.021 34.1779 119.021 36.4364C119.021 39.0065 116.295 40.8757 112.479 40.8757C108.481 40.8757 105.573 39.0065 105.236 36.1509H100.771Z" fill="white"/>
<path d="M130.999 14.9932V44.3284H135.516V34.3596H142.525C148.366 34.3596 152.494 30.4396 152.494 24.6764C152.494 18.9132 148.444 14.9932 142.655 14.9932H130.999ZM135.516 18.9132H141.487C145.537 18.9132 147.873 21.016 147.873 24.6764C147.873 28.3628 145.537 30.4656 141.461 30.4656H135.516V18.9132Z" fill="white"/>
<path d="M172.104 44.3284V32.3866L182.67 14.9932H177.66L169.924 27.8955H169.794L162.084 14.9932H157.047L167.587 32.3866V44.3284H172.104Z" fill="white"/>
<path d="M189.171 14.9932V44.3284H193.688V34.3596H200.697C206.538 34.3596 210.666 30.4396 210.666 24.6764C210.666 18.9132 206.616 14.9932 200.827 14.9932H189.171ZM193.688 18.9132H199.659C203.708 18.9132 206.045 21.016 206.045 24.6764C206.045 28.3628 203.708 30.4656 199.633 30.4656H193.688V18.9132Z" fill="white"/>
<path d="M222.462 14.9932H217.945V33.9962C217.945 40.3564 222.54 44.8216 230.017 44.8216C237.519 44.8216 242.114 40.3564 242.114 33.9962V14.9932H237.597V33.6068C237.597 37.7604 234.845 40.668 230.017 40.668C225.214 40.668 222.462 37.7604 222.462 33.6068V14.9932Z" fill="white"/>
<path d="M249.523 36.1509C249.835 41.4727 254.3 44.8216 260.894 44.8216C267.955 44.8216 272.394 41.3689 272.394 35.8653C272.394 31.5559 269.85 29.1416 263.697 27.7138L260.426 26.935C256.558 26.0004 254.949 24.8062 254.949 22.7554C254.949 20.1853 257.467 18.42 261.101 18.42C264.762 18.42 267.228 20.1853 267.514 23.0669H271.927C271.771 17.9787 267.436 14.5 261.179 14.5C254.819 14.5 250.328 17.9787 250.328 23.0929C250.328 27.1946 252.846 29.7127 258.376 31.0107L262.218 31.9194C266.112 32.8539 267.773 34.1779 267.773 36.4364C267.773 39.0065 265.047 40.8757 261.231 40.8757C257.233 40.8757 254.326 39.0065 253.988 36.1509H249.523Z" fill="white"/>
<path d="M304.284 44.3284V14.9932H299.767V27.3503H284.268V14.9932H279.751V44.3284H284.268V31.4001H299.767V44.3284H304.284Z" fill="white"/>
<g clip-path="url(#clip0)">
<path d="M40.319 0C49.0453 0.131222 55.9344 3.21493 61.6754 8.95589C67.9412 15.2545 74.2399 21.5532 80.5385 27.7862C81.4242 28.672 81.5555 29.1312 80.5713 30.1154C74.1414 36.4797 67.8756 43.0079 61.3801 49.3066C53.2116 57.2455 43.5012 59.7715 32.4457 56.7862C26.8688 55.2772 22.4729 51.931 18.4706 47.896C12.5328 41.8598 6.56225 35.8892 0.558856 29.9186C-0.0644469 29.2953 -0.26128 28.9344 0.46044 28.2455C7.51361 21.2579 14.4356 14.1391 21.6199 7.31561C26.9344 2.23077 33.5611 0.0656109 40.319 0Z" fill="white"/>
<path d="M40.653 44.253L40.6527 44.253C32.15 44.0926 25.3297 37.2278 25.4258 28.9387L25.4258 28.9386C25.5219 20.4102 32.4785 13.5866 40.9021 13.7144C49.3634 13.875 56.1574 20.895 55.9972 29.3541L55.9972 29.3553C55.8691 37.5221 48.7827 44.4131 40.653 44.253Z" fill="white" stroke="white" stroke-width="0.725"/>
<path d="M41.0526 36.2487C37.0253 36.1726 33.7883 32.9171 33.8338 28.977C33.8794 24.9303 37.1773 21.69 41.1741 21.7508C45.1862 21.8269 48.408 25.1585 48.3321 29.1747C48.2713 33.054 44.9127 36.3248 41.0526 36.2487Z" fill="#000A15"/>
<path d="M20.9152 27.2622C21.3645 26.8029 21.8148 26.3424 22.2739 25.8861C21.801 29.3867 22.12 32.4477 23.2137 35.4553L23.2137 35.4553L23.2147 35.458C27.8641 47.9345 43.6892 51.7188 53.3937 42.5169C56.4763 39.6112 59.4629 36.6072 62.452 33.6005C63.3485 32.6988 64.2453 31.7968 65.1449 30.8971C66.9519 29.1064 68.6536 28.0743 70.4574 27.7237C72.2605 27.3732 74.2174 27.6936 76.5547 28.7091L76.5597 28.7112C76.7521 28.7914 76.9047 28.8637 77.0176 28.9359C77.1341 29.0102 77.1725 29.0621 77.1833 29.0852C77.1834 29.0854 77.1836 29.0856 77.1838 29.086C77.1867 29.0914 77.1976 29.1117 77.1685 29.18C77.1314 29.2667 77.0395 29.4012 76.8415 29.5916L76.839 29.594C74.603 31.786 72.4333 34.0327 70.2689 36.274C65.9579 40.738 61.6677 45.1804 56.9155 49.126C48.9613 55.7221 39.8214 56.5712 30.2169 52.7424C26.5178 51.2627 23.6424 48.685 20.8258 45.8685C18.3838 43.4068 15.9283 40.967 13.4762 38.5307C11.9282 36.9927 10.3816 35.456 8.84068 33.9161C12.019 34.0268 14.4711 32.898 16.639 31.2442C17.7746 30.3779 18.8343 29.3662 19.8788 28.316C20.2259 27.9671 20.5702 27.615 20.9152 27.2622Z" fill="#000A15" stroke="white" stroke-width="0.725"/>
<path d="M27.401 15.9799L27.4007 15.9802C25.4147 17.9333 23.4536 19.9027 21.494 21.8705L21.493 21.8714C19.5328 23.8399 17.5742 25.8067 15.5911 27.757C12.6248 30.66 8.75543 31.1717 4.97762 29.4269C4.70163 29.2927 4.51811 29.1801 4.40313 29.0815C4.28979 28.9843 4.27374 28.9275 4.2706 28.9062C4.26716 28.8828 4.26743 28.8201 4.34773 28.6881C4.42853 28.5553 4.56808 28.3891 4.78274 28.1744C6.91807 26.0624 9.02943 23.9288 11.1405 21.7955C14.9758 17.92 18.8101 14.0454 22.7857 10.3024L22.7868 10.3014C30.4257 3.05086 39.47 1.33426 49.4238 4.57655L49.4254 4.57705C52.8472 5.6746 55.9147 7.54681 58.5325 10.1323L58.5342 10.1341C63.0279 14.5949 67.5209 19.0552 72.0139 23.5482C72.1712 23.7054 72.3411 23.8875 72.5962 24.1675C69.4039 24.1165 66.9622 25.2118 64.8362 26.7985C63.6829 27.6594 62.6223 28.6647 61.5875 29.7037C61.2275 30.0651 60.8721 30.429 60.5169 30.7927C60.0747 31.2456 59.6328 31.698 59.1828 32.1449C59.3945 29.9964 59.5238 28.0394 59.1432 26.0774C57.7092 18.6077 53.3891 13.4411 46.132 11.2337C39.076 9.06023 32.7065 10.7745 27.401 15.9799Z" fill="#000A15" stroke="white" stroke-width="0.725"/>
</g>
<defs>
<clipPath id="clip0">
<rect width="81.259" height="58" fill="white"/>
</clipPath>
</defs>
</svg>
