<svg width="24" height="24" viewBox="0 0 24 24" fill="none" xmlns="http://www.w3.org/2000/svg">
<g clip-path="url(#clip0)">
<path d="M23.9468 13.1223H0.0540771V13.1227H23.9468V13.1223Z" fill="#C42126"/>
<path d="M22.7015 6.57153H1.29858V6.57189H22.7015V6.57153Z" fill="#C42126"/>
<path d="M23.5517 8.75488H0.447388V8.75524H23.5517V8.75488Z" fill="#C42126"/>
<path d="M5.15762 21.856H18.8426L18.8434 21.8552H5.15686L5.15762 21.856Z" fill="#C42126"/>
<path d="M12 0C11.7643 0 11.5304 0.00851213 11.2983 0.021787H12.7018C12.4695 0.00851213 12.2357 0 12 0Z" fill="#C42126"/>
<path d="M23.9499 10.9387H0.0495605V10.9391H23.9499V10.9387Z" fill="#C42126"/>
<path d="M15.5467 4.38828H21.2767C20.5961 3.55971 19.8051 2.82625 18.9288 2.20532H14.626C14.982 2.83172 15.2882 3.57086 15.5467 4.38828Z" fill="#E7E7E7"/>
<path d="M14.626 2.20549H18.9288C17.15 0.944931 15.0145 0.155532 12.7017 0.0219727H12.3323C13.4208 0.158977 13.9208 0.96459 14.626 2.20549Z" fill="#DC3027"/>
<path d="M23.5526 8.75498C23.3392 7.99405 23.0531 7.26399 22.7015 6.57202H16.1093C16.2428 7.2729 16.3482 8.005 16.4262 8.75498H23.5526Z" fill="#E7E7E7"/>
<path d="M15.7384 6.57174H22.7012C22.3045 5.79131 21.8278 5.05896 21.2768 4.38843H15.1945C15.4089 5.06732 15.591 5.79967 15.7384 6.57174Z" fill="#DC3027"/>
<path d="M16.6786 13.1218H23.9459C23.9804 12.7526 23.9999 12.3783 23.9999 12.0002C23.9999 11.6422 23.9811 11.2889 23.9504 10.9387H16.6803C16.704 11.6648 16.7036 12.3962 16.6786 13.1218Z" fill="#E7E7E7"/>
<path d="M23.9506 10.9383C23.8848 10.1886 23.7498 9.45909 23.5525 8.75537H16.12C16.1946 9.47024 16.2439 10.2016 16.268 10.9383H23.9506Z" fill="#DC3027"/>
<path d="M15.9839 17.4887H22.6701C23.0267 16.7975 23.3173 16.0669 23.5352 15.3054H16.3071C16.2275 16.0565 16.1195 16.7885 15.9839 17.4887Z" fill="#E7E7E7"/>
<path d="M23.5353 15.3053C23.7368 14.6018 23.8766 13.8723 23.9461 13.1223H16.4522C16.4266 13.8596 16.3758 14.5908 16.2997 15.3053H23.5353Z" fill="#DC3027"/>
<path d="M18.8433 21.8551C19.7323 21.2366 20.5345 20.5024 21.2259 19.6721H15.5957C15.3325 20.4929 15.0201 21.2309 14.6576 21.8551H18.8433Z" fill="#E7E7E7"/>
<path d="M15.3839 19.6721H21.226C21.7834 19.0023 22.2673 18.27 22.6699 17.4888H15.9347C15.7852 18.2614 15.6013 18.9941 15.3839 19.6721Z" fill="#DC3027"/>
<path d="M11.5651 23.9914C11.5408 23.9906 11.5166 23.9895 11.4923 23.9888C11.5166 23.9895 11.5408 23.9906 11.5651 23.9914Z" fill="#DC3027"/>
<path d="M11.9999 24.0001C14.5439 24.0001 16.9012 23.2059 18.8426 21.856H14.4996C13.7288 23.184 13.2203 24.0001 11.9999 24.0001Z" fill="#DC3027"/>
<path d="M11.9999 23.9999C11.8542 23.9999 11.7094 23.9966 11.5651 23.9915C11.7109 23.9964 11.8558 23.9999 11.9999 23.9999Z" fill="#C42126"/>
<path d="M15.0234 2.20532H5.07145C4.19495 2.82625 3.40408 3.55966 2.72327 4.38828H15.9439C15.6854 3.57086 15.3794 2.83172 15.0234 2.20532Z" fill="#F3F4F5"/>
<path d="M5.07141 2.20549H15.0234C14.318 0.96459 13.4208 0.158977 12.3323 0.0219727H11.2983C8.98557 0.155532 6.84999 0.944931 5.07141 2.20549Z" fill="#E73625"/>
<path d="M0.447632 8.75498H16.8046C16.7265 8.00485 16.6212 7.2729 16.4876 6.57202H1.29874C0.947061 7.26404 0.660992 7.99405 0.447632 8.75498Z" fill="#F3F4F5"/>
<path d="M2.72321 4.38843C2.17261 5.05896 1.69552 5.79125 1.29895 6.57173H16.4876C16.3404 5.79981 16.1583 5.06752 15.9438 4.38843C15.9438 4.38843 2.72321 4.38843 2.72321 4.38843Z" fill="#E73625"/>
<path d="M0.00012207 12.0002C0.00012207 12.3784 0.0198317 12.7527 0.0541336 13.1219H16.9513C16.9763 12.3962 16.9767 11.665 16.953 10.939H0.0495735C0.018869 11.289 0.00012207 11.6423 0.00012207 12.0002Z" fill="#F3F4F5"/>
<path d="M0.0495605 10.9383H16.9528C16.9287 10.2015 16.8793 9.47029 16.8048 8.75537H0.447452C0.250204 9.45924 0.115124 10.1886 0.0495605 10.9383Z" fill="#E73625"/>
<path d="M16.7987 15.3052H0.464844C0.682764 16.0669 0.973596 16.7973 1.32999 17.4885H16.4755C16.6111 16.7884 16.7189 16.0564 16.7987 15.3052Z" fill="#F3F4F5"/>
<path d="M0.464838 15.3053H16.7987C16.8747 14.5908 16.9256 13.8594 16.9512 13.1223H0.0540771C0.123593 13.8724 0.263638 14.6018 0.464838 15.3053Z" fill="#E73625"/>
<path d="M5.15681 21.8551H14.9867C15.3492 21.2308 15.6618 20.4929 15.9249 19.6721H2.77417C3.46558 20.5024 4.26759 21.2366 5.15681 21.8551Z" fill="#F3F4F5"/>
<path d="M1.3302 17.4888C1.73285 18.27 2.21673 19.0023 2.77417 19.6721H15.9249C16.142 18.9942 16.326 18.2614 16.4755 17.4888H1.3302Z" fill="#E73625"/>
<path d="M11.4923 23.9889C11.5166 23.9897 11.5408 23.9908 11.565 23.9915C11.7095 23.9967 11.8542 24.0001 11.9999 24.0001C13.2203 24.0001 14.2154 23.184 14.9864 21.856H5.15759C6.9688 23.1157 9.14284 23.891 11.4923 23.9889Z" fill="#E73625"/>
<path d="M11.7518 0.00610352C5.60245 0.131201 0.590431 4.8792 0.0510254 10.9187H11.752V0.00610352H11.7518Z" fill="#283991"/>
<path d="M2.40102 6.79883L2.58382 7.36174H3.17613L2.69696 7.70983L2.87997 8.27315L2.40102 7.92486L1.92221 8.27315L2.10486 7.70983L1.62585 7.36174H2.21816L2.40102 6.79883Z" fill="#EFEFEF"/>
<path d="M2.40102 8.7876L2.58382 9.35087H3.17613L2.69696 9.69895L2.87997 10.2623L2.40102 9.91399L1.92221 10.2623L2.10486 9.69895L1.62585 9.35087H2.21816L2.40102 8.7876Z" fill="#EFEFEF"/>
<path d="M4.39011 3.81494L4.57297 4.37806H5.16507L4.68606 4.72635L4.86892 5.28926L4.39011 4.94138L3.9111 5.28926L4.09396 4.72635L3.61475 4.37806H4.20705L4.39011 3.81494Z" fill="#EFEFEF"/>
<path d="M4.39011 5.80396L4.57297 6.36707H5.16507L4.68606 6.71496L4.86892 7.27828L4.39011 6.93039L3.9111 7.27828L4.09396 6.71496L3.61475 6.36707H4.20705L4.39011 5.80396Z" fill="#EFEFEF"/>
<path d="M4.39011 7.79321L4.57297 8.35653H5.16507L4.68606 8.70421L4.86892 9.26753L4.39011 8.9193L3.9111 9.26753L4.09396 8.70421L3.61475 8.35653H4.20705L4.39011 7.79321Z" fill="#EFEFEF"/>
<path d="M0.890926 9.26772L0.707915 8.7044L1.18692 8.35652H0.594977L0.581702 8.31543C0.516696 8.51648 0.457972 8.71996 0.403809 8.92572L0.412169 8.91949L0.890926 9.26772Z" fill="#EFEFEF"/>
<path d="M1.92226 6.28404L2.40107 5.9358L2.88008 6.28404L2.69707 5.72072L3.17608 5.37248H2.58378L2.40092 4.80957L2.21806 5.37248H1.99979C1.95925 5.43389 1.92003 5.49565 1.88062 5.55798L2.10497 5.72072L1.92226 6.28404Z" fill="#EFEFEF"/>
<path d="M4.39018 2.95243L4.86899 3.30031L4.68613 2.7374L5.16494 2.38916H4.82293C4.53246 2.60632 4.25221 2.83615 3.98297 3.07864L3.91077 3.30031L4.39018 2.95243Z" fill="#EFEFEF"/>
<path d="M5.90027 2.30585L6.37928 1.95761L6.85809 2.30585L6.67523 1.74253L7.15404 1.39465H6.56194L6.53711 1.31885C6.33647 1.42135 6.1379 1.528 5.94384 1.6415L6.08293 1.74248L5.90027 2.30585Z" fill="#EFEFEF"/>
<path d="M6.37932 2.82056L6.56218 3.38332H7.15428L6.67527 3.73156L6.85813 4.29488L6.37932 3.94659L5.90031 4.29488L6.08317 3.73156L5.604 3.38332H6.19626L6.37932 2.82056Z" fill="#EFEFEF"/>
<path d="M6.37932 4.80957L6.56218 5.37233H7.15428L6.67527 5.72057L6.85813 6.28389L6.37932 5.9356L5.90031 6.28389L6.08317 5.72057L5.604 5.37233H6.19626L6.37932 4.80957Z" fill="#EFEFEF"/>
<path d="M6.37932 6.79883L6.56218 7.36174H7.15428L6.67527 7.70983L6.85813 8.27315L6.37932 7.92486L5.90031 8.27315L6.08317 7.70983L5.604 7.36174H6.19626L6.37932 6.79883Z" fill="#EFEFEF"/>
<path d="M6.37932 8.7876L6.56218 9.35087H7.15428L6.67527 9.69895L6.85813 10.2623L6.37932 9.91399L5.90031 10.2623L6.08317 9.69895L5.604 9.35087H6.19626L6.37932 8.7876Z" fill="#EFEFEF"/>
<path d="M8.36833 1.82593L8.55119 2.38905H9.14329L8.66448 2.73734L8.84714 3.30025L8.36833 2.95237L7.88917 3.30025L8.07218 2.73734L7.59302 2.38905H8.18527L8.36833 1.82593Z" fill="#EFEFEF"/>
<path d="M8.36833 3.81494L8.55119 4.37806H9.14329L8.66448 4.72635L8.84714 5.28926L8.36833 4.94138L7.88917 5.28926L8.07218 4.72635L7.59302 4.37806H8.18527L8.36833 3.81494Z" fill="#EFEFEF"/>
<path d="M8.36833 5.80396L8.55119 6.36707H9.14329L8.66448 6.71496L8.84714 7.27828L8.36833 6.93039L7.88917 7.27828L8.07218 6.71496L7.59302 6.36707H8.18527L8.36833 5.80396Z" fill="#EFEFEF"/>
<path d="M8.36833 7.79321L8.55119 8.35653H9.14329L8.66448 8.70421L8.84714 9.26753L8.36833 8.9193L7.88917 9.26753L8.07218 8.70421L7.59302 8.35653H8.18527L8.36833 7.79321Z" fill="#EFEFEF"/>
<path d="M10.3575 0.831543L10.5403 1.39466H11.1324L10.6534 1.74254L10.8363 2.30587L10.3575 1.95758L9.8783 2.30587L10.0613 1.74254L9.58215 1.39466H10.1743L10.3575 0.831543Z" fill="#EFEFEF"/>
<path d="M10.3575 2.82056L10.5403 3.38332H11.1324L10.6534 3.73156L10.8363 4.29488L10.3575 3.94659L9.8783 4.29488L10.0613 3.73156L9.58215 3.38332H10.1743L10.3575 2.82056Z" fill="#EFEFEF"/>
<path d="M10.3575 4.80957L10.5403 5.37233H11.1324L10.6534 5.72057L10.8363 6.28389L10.3575 5.9356L9.8783 6.28389L10.0613 5.72057L9.58215 5.37233H10.1743L10.3575 4.80957Z" fill="#EFEFEF"/>
<path d="M10.3575 6.79883L10.5403 7.36174H11.1324L10.6534 7.70983L10.8363 8.27315L10.3575 7.92486L9.8783 8.27315L10.0613 7.70983L9.58215 7.36174H10.1743L10.3575 6.79883Z" fill="#EFEFEF"/>
<path d="M10.3575 8.7876L10.5403 9.35087H11.1324L10.6534 9.69895L10.8363 10.2623L10.3575 9.91399L9.8783 10.2623L10.0613 9.69895L9.58215 9.35087H10.1743L10.3575 8.7876Z" fill="#EFEFEF"/>
</g>
<defs>
<clipPath id="clip0">
<rect width="24" height="24" fill="white"/>
</clipPath>
</defs>
</svg>
