<svg width="222" height="54" viewBox="0 0 222 54" fill="none" xmlns="http://www.w3.org/2000/svg">
<mask id="mask0" mask-type="alpha" maskUnits="userSpaceOnUse" x="0" y="0" width="222" height="48">
<rect x="20.894" width="180.212" height="48" rx="4" fill="white"/>
<rect width="222" height="48" rx="4" fill="#000A15"/>
<path d="M78.9585 28H80.7281V21.0039H83.1773V19.5449H76.5152V21.0039H78.9585V28ZM84.5158 28H86.2853V24.9355H87.7033L89.2795 28H91.2834L89.5021 24.6719C90.4396 24.3027 91.0314 23.377 91.0314 22.2637V22.252C91.0314 20.5527 89.9064 19.5449 88.008 19.5449H84.5158V28ZM86.2853 23.5938V20.9277H87.7912C88.6642 20.9277 89.2209 21.4434 89.2209 22.252V22.2637C89.2209 23.0957 88.6935 23.5938 87.8146 23.5938H86.2853ZM94.5203 28H96.2899V24.8418L99.2371 19.5449H97.3211L95.4285 23.1543H95.3875L93.4891 19.5449H91.5789L94.5203 24.8418V28ZM103.197 28H104.967V19.5449H103.197V28ZM108.755 28H110.524V21.0039H112.973V19.5449H106.311V21.0039H108.755V28ZM117.051 28H118.814V22.4629H118.85L122.682 28H124.217V19.5449H122.453V25.041H122.418L118.598 19.5449H117.051V28ZM129.803 28.1465C132.317 28.1465 133.882 26.4648 133.882 23.7754V23.7637C133.882 21.0801 132.311 19.3984 129.803 19.3984C127.301 19.3984 125.725 21.0742 125.725 23.7637V23.7754C125.725 26.4648 127.29 28.1465 129.803 28.1465ZM129.803 26.6465C128.415 26.6465 127.53 25.5449 127.53 23.7754V23.7637C127.53 21.9941 128.421 20.8984 129.803 20.8984C131.192 20.8984 132.077 22 132.077 23.7637V23.7754C132.077 25.5273 131.21 26.6465 129.803 26.6465ZM136.878 28H138.607L140.165 22.334H140.201L141.753 28H143.482L145.726 19.5449H143.892L142.55 25.6035H142.515L140.956 19.5449H139.404L137.845 25.6035H137.81L136.474 19.5449H134.64L136.878 28Z" fill="white"/>
</mask>
<g mask="url(#mask0)">
<rect x="-35.5308" y="32.9722" width="128.45" height="24" transform="rotate(-30 -35.5308 32.9722)" fill="#5FAB17"/>
<path d="M9.2057 25.6187L10.7382 24.7339L9.07409 21.8517L12.0527 20.132L11.3526 18.9192L8.3739 20.6389L7.24011 18.6752L10.5029 16.7914L9.77344 15.5278L4.97816 18.2964L9.2057 25.6187ZM15.2211 22.1457L16.7535 21.261L15.2213 18.6071L16.4493 17.8981L19.3465 19.7639L21.082 18.762L17.8753 16.7703C18.5026 15.9819 18.5522 14.8843 17.9956 13.9201L17.9897 13.91C17.1401 12.4384 15.6619 12.1281 14.0178 13.0773L10.9935 14.8234L15.2211 22.1457ZM14.5504 17.4451L13.2174 15.1362L14.5215 14.3833C15.2776 13.9468 16.0175 14.115 16.4217 14.8153L16.4276 14.8254C16.8436 15.546 16.636 16.241 15.8748 16.6804L14.5504 17.4451ZM22.1904 18.122L27.0415 15.3212L26.312 14.0577L22.9934 15.9737L21.9299 14.1317L25.0608 12.3241L24.3694 11.1265L21.2385 12.9342L20.2248 11.1784L23.5434 9.26242L22.814 7.9989L17.9629 10.7997L22.1904 18.122ZM28.4595 14.5025L33.3106 11.7018L32.5811 10.4382L29.2624 12.3543L28.199 10.5123L31.3298 8.70465L30.6384 7.5071L27.5076 9.31471L26.4939 7.55898L29.8125 5.64297L29.083 4.37945L24.2319 7.18023L28.4595 14.5025Z" fill="white"/>
</g>
</svg>
