<svg width="18" height="18" viewBox="0 0 18 18" fill="none" xmlns="http://www.w3.org/2000/svg">
<path d="M9 0C4.02964 0 0 4.02964 0 9C0 13.9704 4.02964 18 9 18C13.9704 18 18 13.9704 18 9C18 4.02964 13.9704 0 9 0Z" fill="#000A15"/>
<g clip-path="url(#clip0)">
<path d="M13.9902 6.94003C13.9668 6.40869 13.8809 6.0434 13.7578 5.72687C13.6308 5.39088 13.4354 5.09007 13.1795 4.84001C12.9294 4.58605 12.6266 4.38872 12.2945 4.26372C11.9762 4.14064 11.6128 4.05471 11.0815 4.03129C10.5462 4.00588 10.3762 4 9.01854 4C7.66086 4 7.49092 4.00588 6.9576 4.0293C6.42626 4.05273 6.06097 4.13873 5.74452 4.26174C5.40846 4.38872 5.10765 4.58407 4.85758 4.84001C4.60363 5.09007 4.40637 5.39287 4.2813 5.72496C4.15821 6.0434 4.07229 6.4067 4.04886 6.93804C4.02345 7.47335 4.01758 7.64329 4.01758 9.00098C4.01758 10.3587 4.02345 10.5286 4.04688 11.0619C4.07031 11.5933 4.15631 11.9586 4.27939 12.2751C4.40637 12.6111 4.60363 12.9119 4.85758 13.1619C5.10765 13.4159 5.41044 13.6132 5.74253 13.7382C6.06097 13.8613 6.42428 13.9472 6.95569 13.9707C7.48893 13.9942 7.65895 14 9.01663 14C10.3743 14 10.5443 13.9942 11.0776 13.9707C11.6089 13.9472 11.9742 13.8613 12.2907 13.7382C12.9627 13.4784 13.494 12.9471 13.7539 12.2751C13.8769 11.9566 13.9629 11.5933 13.9863 11.0619C14.0097 10.5286 14.0156 10.3587 14.0156 9.00098C14.0156 7.64329 14.0136 7.47335 13.9902 6.94003Z" fill="white"/>
<path d="M9.01856 6.43188C7.60036 6.43188 6.44971 7.58247 6.44971 9.00075C6.44971 10.419 7.60036 11.5696 9.01856 11.5696C10.4368 11.5696 11.5874 10.419 11.5874 9.00075C11.5874 7.58247 10.4368 6.43188 9.01856 6.43188ZM9.01856 10.6671C8.09851 10.6671 7.35221 9.92088 7.35221 9.00075C7.35221 8.08061 8.09851 7.33439 9.01856 7.33439C9.93869 7.33439 10.6849 8.08061 10.6849 9.00075C10.6849 9.92088 9.93869 10.6671 9.01856 10.6671Z" fill="#000A15" stroke="#000A15" stroke-width="0.5"/>
<path d="M12.2887 6.33067C12.2887 6.66185 12.0202 6.93039 11.689 6.93039C11.3578 6.93039 11.0892 6.66185 11.0892 6.33067C11.0892 5.99941 11.3578 5.73096 11.689 5.73096C12.0202 5.73096 12.2887 5.99941 12.2887 6.33067Z" fill="#000A15"/>
</g>
<defs>
<clipPath id="clip0">
<rect width="10" height="10" fill="white" transform="translate(4 4)"/>
</clipPath>
</defs>
</svg>
