<svg width="34" height="24" viewBox="0 0 34 24" fill="none" xmlns="http://www.w3.org/2000/svg">
<g clip-path="url(#clip0)">
<path d="M16.6833 0C20.2942 0.0542987 23.1448 1.33032 25.5204 3.70588C28.1132 6.31222 30.7195 8.91856 33.3258 11.4977C33.6924 11.8643 33.7467 12.0543 33.3394 12.4615C30.6788 15.095 28.086 17.7964 25.3982 20.4027C22.0182 23.6878 18.0001 24.733 13.4254 23.4977C11.1177 22.8733 9.29869 21.4887 7.64259 19.819C5.18557 17.3213 2.71498 14.8507 0.230822 12.3801C-0.027097 12.1222 -0.108545 11.9729 0.190098 11.6878C3.10865 8.79638 5.9729 5.85068 8.94576 3.02715C11.1448 0.923077 13.8869 0.0271493 16.6833 0Z" fill="#000A15"/>
<path d="M16.8219 18.3116L16.8218 18.3116C13.3034 18.2452 10.4813 15.4046 10.521 11.9746L10.521 11.9746C10.5608 8.44557 13.4394 5.62204 16.925 5.6749C20.4263 5.74136 23.2376 8.6462 23.1713 12.1465L23.1713 12.147C23.1183 15.5264 20.1859 18.3778 16.8219 18.3116Z" fill="white" stroke="#000A15" stroke-width="0.3"/>
<path d="M16.9872 14.9995C15.3208 14.968 13.9813 13.6209 14.0002 11.9905C14.0191 10.316 15.3837 8.97517 17.0376 9.00035C18.6977 9.03182 20.0309 10.4104 19.9995 12.0723C19.9743 13.6775 18.5845 15.0309 16.9872 14.9995Z" fill="#000A15"/>
<path d="M22.0942 17.593C23.3697 16.3907 24.6054 15.1477 25.8422 13.9037C26.2132 13.5305 26.5843 13.1573 26.9565 12.785C27.7042 12.044 28.4084 11.617 29.1548 11.4719C29.9009 11.3268 30.7107 11.4594 31.6778 11.8796L31.6778 11.8796L31.6799 11.8805C31.7595 11.9137 31.8226 11.9436 31.8694 11.9734C31.9176 12.0042 31.9334 12.0257 31.9379 12.0352C31.938 12.0353 31.938 12.0354 31.9381 12.0356C31.9393 12.0378 31.9439 12.0462 31.9318 12.0745C31.9165 12.1103 31.8784 12.166 31.7965 12.2448L31.7955 12.2458C30.8702 13.1528 29.9724 14.0825 29.0768 15.0099C27.2929 16.8571 25.5177 18.6953 23.5513 20.328C20.2599 23.0574 16.4779 23.4088 12.5037 21.8245C10.973 21.2122 9.78314 20.1456 8.61766 18.9801C7.60714 17.9614 6.59102 16.9519 5.57634 15.9437C4.93581 15.3073 4.29584 14.6714 3.65822 14.0342C4.9734 14.0801 5.98804 13.613 6.88513 12.9286C7.35502 12.5701 7.79351 12.1515 8.22573 11.717C8.36934 11.5726 8.51183 11.4269 8.6546 11.2809C8.84048 11.0908 9.02684 10.9003 9.21678 10.7115C9.0211 12.16 9.15311 13.4266 9.60567 14.6711L9.60566 14.6711L9.60608 14.6722C11.53 19.835 18.0785 21.4009 22.0942 17.593ZM22.0942 17.593C22.0941 17.5931 22.094 17.5932 22.0939 17.5933L21.991 17.4841M22.0942 17.593C22.0942 17.593 22.0942 17.593 22.0942 17.593L21.991 17.4841M21.991 17.4841C23.2646 16.2835 24.4981 15.0428 25.7347 13.799C26.106 13.4255 26.4777 13.0517 26.8507 12.6787M21.991 17.4841C18.0543 21.2172 11.6335 19.6832 9.74664 14.6199L26.8507 12.6787M26.8507 12.6787C28.3711 11.1719 29.7693 10.8868 31.7376 11.742C32.0634 11.8778 32.2534 12.0135 31.9005 12.3529C30.9816 13.2537 30.0869 14.1801 29.1926 15.106C27.4051 16.9569 25.6196 18.8057 23.6471 20.4434C20.3077 23.2126 16.4661 23.5656 12.448 21.9638L26.8507 12.6787Z" fill="#61C6FF" stroke="#000A15" stroke-width="0.3"/>
<path d="M11.3384 6.61238L11.3382 6.61251C10.5165 7.42069 9.70498 8.23558 8.89413 9.04983L8.89369 9.05026C8.0826 9.86475 7.27215 10.6786 6.45162 11.4856C5.22415 12.6869 3.62296 12.8987 2.05967 12.1766C1.94549 12.1211 1.86957 12.0745 1.822 12.0337C1.7751 11.9935 1.76846 11.97 1.76716 11.9612C1.76574 11.9515 1.76585 11.9256 1.79908 11.871C1.8325 11.816 1.89023 11.7472 1.97901 11.6584C2.86262 10.7845 3.7363 9.90162 4.60988 9.01887C6.19688 7.41519 7.78351 5.81188 9.42859 4.26306L9.42903 4.26264C12.59 1.26243 16.3324 0.552117 20.4513 1.89375L20.4519 1.89396C21.8678 2.34812 23.1371 3.12283 24.2204 4.19269L24.2208 4.19309C26.0803 6.03906 27.9396 7.88479 29.7989 9.74407C29.864 9.80916 29.9343 9.88449 30.0398 10.0004C28.7189 9.97924 27.7085 10.4325 26.8288 11.0891C26.3515 11.4453 25.9127 11.8613 25.4845 12.2912C25.3355 12.4408 25.1885 12.5913 25.0415 12.7418C24.8585 12.9292 24.6757 13.1164 24.4895 13.3013C24.577 12.4123 24.6306 11.6026 24.4731 10.7907C23.8797 7.69979 22.0921 5.56185 19.0891 4.64842C16.1694 3.74907 13.5337 4.45843 11.3384 6.61238Z" fill="#61C6FF" stroke="#000A15" stroke-width="0.3"/>
</g>
<defs>
<clipPath id="clip0">
<rect width="33.6244" height="24" fill="white"/>
</clipPath>
</defs>
</svg>
