<svg width="152" height="24" viewBox="0 0 152 24" fill="none" xmlns="http://www.w3.org/2000/svg">
<path d="M14.43 10L12 2L9.57 10H2L8.18 14.41L5.83 22L12 17.31L18.18 22L15.83 14.41L22 10H14.43Z" fill="#F9B931"/>
<path d="M46.43 10L44 2L41.57 10H34L40.18 14.41L37.83 22L44 17.31L50.18 22L47.83 14.41L54 10H46.43Z" fill="#F9B931"/>
<path d="M78.43 10L76 2L73.57 10H66L72.18 14.41L69.83 22L76 17.31L82.18 22L79.83 14.41L86 10H78.43Z" fill="#F9B931"/>
<path d="M110.43 10L108 2L105.57 10H98L104.18 14.41L101.83 22L108 17.31L114.18 22L111.83 14.41L118 10H110.43Z" fill="#F9B931"/>
<path d="M142.43 10L140 2L137.57 10H130L136.18 14.41L133.83 22L140 17.31L146.18 22L143.83 14.41L150 10H142.43Z" fill="#F9B931"/>
</svg>
