<svg width="18" height="18" viewBox="0 0 18 18" fill="none" xmlns="http://www.w3.org/2000/svg">
<g clip-path="url(#clip0)">
<path d="M9.00089 17.9998C13.9714 17.9998 18.0008 13.9704 18.0008 8.99992C18.0008 4.0294 13.9714 0 9.00089 0C4.03038 0 0.000976562 4.0294 0.000976562 8.99992C0.000976562 13.9704 4.03038 17.9998 9.00089 17.9998Z" fill="#000A15"/>
<path d="M14.5129 6.46803C14.1272 6.63905 13.7123 6.75472 13.2772 6.80638C13.7215 6.54022 14.0624 6.11909 14.2233 5.61645C13.8076 5.86304 13.347 6.04192 12.8572 6.13834C12.4648 5.72041 11.9057 5.45923 11.2866 5.45923C10.0987 5.45923 9.13534 6.42262 9.13534 7.61046C9.13534 7.77908 9.15443 7.9432 9.19133 8.10074C7.40348 8.01106 5.81825 7.15467 4.75715 5.85277C4.57201 6.17042 4.4658 6.54022 4.4658 6.9344C4.4658 7.68057 4.84587 8.3393 5.42278 8.72498C5.07031 8.71391 4.73838 8.61717 4.44848 8.45562C4.44832 8.46476 4.44832 8.47391 4.44832 8.48289C4.44832 9.52522 5.19016 10.3946 6.17409 10.5921C5.99376 10.6415 5.80333 10.6677 5.60744 10.6677C5.46851 10.6677 5.3339 10.6543 5.20267 10.6293C5.47637 11.4838 6.27067 12.1058 7.21224 12.1233C6.47586 12.7003 5.5484 13.0441 4.54024 13.0441C4.36698 13.0441 4.19532 13.034 4.02734 13.014C4.97887 13.6246 6.10991 13.9806 7.3247 13.9806C11.2816 13.9806 13.4455 10.7026 13.4455 7.85961C13.4455 7.7664 13.4434 7.67351 13.4393 7.58142C13.8599 7.27821 14.2246 6.89943 14.5129 6.46803Z" fill="white"/>
</g>
<defs>
<clipPath id="clip0">
<rect width="18" height="18" fill="white"/>
</clipPath>
</defs>
</svg>
