<svg width="18" height="18" viewBox="0 0 18 18" fill="none" xmlns="http://www.w3.org/2000/svg">
<path d="M9 18C13.9706 18 18 13.9706 18 9C18 4.02944 13.9706 0 9 0C4.02944 0 0 4.02944 0 9C0 13.9706 4.02944 18 9 18Z" fill="#000A15"/>
<path fill-rule="evenodd" clip-rule="evenodd" d="M8.65999 12.9472H9.36638C9.36638 12.9472 9.57976 12.9238 9.68869 12.8064C9.78896 12.6986 9.78575 12.4961 9.78575 12.4961C9.78575 12.4961 9.77196 11.5483 10.2119 11.4087C10.6455 11.2712 11.2024 12.3247 11.7926 12.7298C12.2389 13.0364 12.5781 12.9692 12.5781 12.9692L14.1563 12.9472C14.1563 12.9472 14.9819 12.8964 14.5904 12.2473C14.5583 12.1942 14.3624 11.7671 13.417 10.8895C12.4275 9.97103 12.56 10.1196 13.752 8.53082C14.478 7.56324 14.7682 6.97253 14.6775 6.71952C14.5911 6.47855 14.0571 6.54224 14.0571 6.54224L12.2802 6.55331C12.2802 6.55331 12.1485 6.53535 12.0508 6.59374C11.9553 6.65102 11.8938 6.7845 11.8938 6.7845C11.8938 6.7845 11.6126 7.53324 11.2375 8.17C10.4463 9.51363 10.1299 9.58455 10.0006 9.50112C9.69976 9.30667 9.77484 8.71997 9.77484 8.30316C9.77484 7.00108 9.97234 6.45818 9.39028 6.31764C9.19712 6.27095 9.05498 6.24015 8.561 6.23517C7.92697 6.2286 7.39032 6.2371 7.08646 6.38598C6.88431 6.48497 6.72837 6.70557 6.82335 6.71824C6.94078 6.73396 7.20678 6.78995 7.3478 6.98199C7.5299 7.2297 7.52348 7.78609 7.52348 7.78609C7.52348 7.78609 7.62808 9.31887 7.27914 9.5093C7.03961 9.63989 6.71104 9.37325 6.00562 8.15428C5.64416 7.52987 5.37126 6.83969 5.37126 6.83969C5.37126 6.83969 5.31864 6.7107 5.22479 6.64171C5.11088 6.55813 4.95173 6.5315 4.95173 6.5315L3.26317 6.54256C3.26317 6.54256 3.00968 6.54962 2.91663 6.65984C2.83385 6.75787 2.91005 6.96066 2.91005 6.96066C2.91005 6.96066 4.23203 10.0535 5.72887 11.6121C7.10138 13.0411 8.65999 12.9472 8.65999 12.9472Z" fill="white"/>
</svg>
